<svg width="20" height="18" viewBox="0 0 20 18" fill="#84BE51" xmlns="http://www.w3.org/2000/svg">
<path d="M1.20212 7.5961C1.28395 7.58282 1.36677 7.57669 1.44964 7.57777H15.5592L15.2516 7.43467C14.9508 7.29233 14.6772 7.09861 14.4431 6.86227L10.4864 2.90558C9.96527 2.40814 9.87771 1.6079 10.2789 1.00952C10.7458 0.371882 11.6412 0.233434 12.2789 0.700339C12.3304 0.738082 12.3793 0.779222 12.4254 0.823494L19.5803 7.97844C20.1395 8.53698 20.14 9.44302 19.5814 10.0022C19.5811 10.0025 19.5807 10.0029 19.5803 10.0033L12.4254 17.1582C11.8658 17.7163 10.9597 17.715 10.4016 17.1554C10.3577 17.1114 10.3167 17.0645 10.2789 17.0151C9.87771 16.4168 9.96527 15.6165 10.4864 15.1191L14.4359 11.1552C14.6459 10.9451 14.8872 10.7688 15.1514 10.6329L15.5807 10.4397H1.52839C0.797373 10.4669 0.156021 9.95625 0.018692 9.23771C-0.107817 8.4576 0.422007 7.72265 1.20212 7.5961Z"/>
</svg>
