<svg width="18" height="20" viewBox="0 0 18 20" fill="none" xmlns="http://www.w3.org/2000/svg">
<path d="M7.5961 18.7979C7.58282 18.716 7.57669 18.6332 7.57777 18.5504L7.57777 4.44077L7.43467 4.74843C7.29233 5.04917 7.09861 5.32275 6.86227 5.55694L2.90558 9.51363C2.40814 10.0347 1.6079 10.1223 1.00952 9.72112C0.371882 9.25422 0.233434 8.35882 0.700339 7.72113C0.738082 7.66962 0.779222 7.62065 0.823494 7.57464L7.97844 0.419694C8.53698 -0.139465 9.44302 -0.139957 10.0022 0.418576C10.0025 0.418933 10.0029 0.419336 10.0033 0.419694L17.1582 7.57464C17.7163 8.13424 17.715 9.04028 17.1554 9.59837C17.1114 9.64228 17.0645 9.68329 17.0151 9.72112C16.4168 10.1223 15.6165 10.0347 15.1191 9.51363L11.1552 5.5641C10.9451 5.35415 10.7688 5.11275 10.6329 4.8486L10.4397 4.41931V18.4716C10.4669 19.2026 9.95625 19.844 9.23771 19.9813C8.4576 20.1078 7.72265 19.578 7.5961 18.7979Z" fill="white"/>
</svg>
