<svg width="16" height="16" viewBox="0 0 16 16" fill="none" xmlns="http://www.w3.org/2000/svg">
<path d="M15.9331 9.76737L13.2374 5.27428L15.6566 4.60228C15.9061 4.533 16.0521 4.27462 15.9828 4.02518C15.9135 3.77575 15.6551 3.62968 15.4057 3.699L12.3985 4.53431C12.3983 4.53437 12.3981 4.53443 12.3978 4.5345L8.46877 5.62587V0.468903C8.46877 0.210028 8.25889 0.000152588 8.00002 0.000152588C7.74114 0.000152588 7.53127 0.210028 7.53127 0.468903V5.88628L3.36118 7.04459C3.36096 7.04465 3.36074 7.04472 3.36052 7.04475L0.343425 7.88281C0.0939564 7.95209 -0.0520436 8.21047 0.0172064 8.4599C0.0748627 8.66737 0.263269 8.80331 0.468581 8.80331C0.510113 8.80331 0.552363 8.79775 0.5943 8.78609L2.47511 8.26365L0.0669876 12.2777C0.0233001 12.3505 0.000175152 12.4339 0.000175152 12.5188C0.000175152 14.4383 1.56183 15.9999 3.48133 15.9999C5.40089 15.9999 6.96252 14.4383 6.96252 12.5188C6.96252 12.4339 6.93943 12.3505 6.89571 12.2777L4.20002 7.78456L11.5124 5.7534L9.1043 9.76737C9.06061 9.84022 9.03749 9.92359 9.03749 10.0085C9.03749 11.928 10.5991 13.4896 12.5186 13.4896C13.4485 13.4896 14.3227 13.1275 14.9802 12.47C15.6378 11.8125 15.9999 10.9383 15.9998 10.0085C15.9999 9.92356 15.9768 9.84019 15.9331 9.76737ZM3.48133 15.0624C2.23892 15.0624 1.20218 14.1669 0.981456 12.9876H5.98121C5.76052 14.1669 4.72377 15.0624 3.48133 15.0624ZM5.66596 12.0501H1.29677L3.48133 8.40881L5.66596 12.0501ZM12.5186 5.89853L14.7033 9.53975H10.3341L12.5186 5.89853ZM12.5187 12.5522C11.2763 12.5522 10.2395 11.6566 10.0188 10.4773H15.0186C14.7979 11.6566 13.7611 12.5522 12.5187 12.5522Z" fill="#8C3213"/>
</svg>
