<svg width="16" height="16" viewBox="0 0 16 16" fill="none" xmlns="http://www.w3.org/2000/svg">
<path d="M15.9077 3.34286C15.8161 3.21159 15.6687 3.13046 15.5086 3.12362L5.58366 2.69581C5.29889 2.68335 5.06093 2.9032 5.04875 3.18664C5.03665 3.46997 5.25614 3.70937 5.53955 3.72154L14.7926 4.12042L12.9732 9.79688H4.87696L3.41425 1.83253C3.38209 1.65797 3.26225 1.51235 3.09697 1.44751L0.701302 0.506346C0.437269 0.402975 0.139327 0.532664 0.0356332 0.796375C-0.0678819 1.06023 0.0617715 1.35835 0.325661 1.46204L2.45579 2.29886L3.94432 10.403C3.98918 10.6466 4.20151 10.8236 4.44933 10.8236H4.69624L4.13241 12.3897C4.08522 12.5209 4.10466 12.6666 4.18497 12.7806C4.26518 12.8946 4.39562 12.9624 4.53487 12.9624H4.93034C4.68529 13.2351 4.53487 13.5942 4.53487 13.9891C4.53487 14.8384 5.22589 15.5292 6.07495 15.5292C6.92402 15.5292 7.61504 14.8384 7.61504 13.9891C7.61504 13.5943 7.46462 13.2351 7.2196 12.9624H10.5774C10.3322 13.2351 10.1818 13.5942 10.1818 13.9891C10.1818 14.8384 10.8727 15.5292 11.7219 15.5292C12.5712 15.5292 13.262 14.8384 13.262 13.9891C13.262 13.5943 13.1116 13.2351 12.8666 12.9624H13.3476C13.5839 12.9624 13.7754 12.7709 13.7754 12.5346C13.7754 12.2983 13.5839 12.1068 13.3476 12.1068H5.14357L5.60554 10.8234H13.3475C13.5708 10.8234 13.7683 10.6792 13.8363 10.4668L15.9753 3.79305C16.0245 3.64073 15.9993 3.47419 15.9077 3.34286ZM6.07499 14.6738C5.69749 14.6738 5.39049 14.3668 5.39049 13.9893C5.39049 13.6118 5.69749 13.3048 6.07499 13.3048C6.45249 13.3048 6.75945 13.6118 6.75945 13.9893C6.75945 14.3668 6.45249 14.6738 6.07499 14.6738ZM11.7219 14.6738C11.3444 14.6738 11.0374 14.3668 11.0374 13.9893C11.0374 13.6118 11.3444 13.3048 11.7219 13.3048C12.0994 13.3048 12.4064 13.6118 12.4064 13.9893C12.4064 14.3668 12.0994 14.6738 11.7219 14.6738Z" fill="#8C3213"/>
</svg>
