<svg width="12" height="12" viewBox="0 0 12 12" fill="none" xmlns="http://www.w3.org/2000/svg">
<g clip-path="url(#clip0_48_2702)">
<path d="M11.988 3.37271C11.9694 3.2201 11.8924 3.08392 11.7712 2.9893L8.09765 0.121535C7.84796 -0.0733805 7.48557 -0.0291049 7.28988 0.220329L3.73117 4.75732L1.36984 6.33824C1.3698 6.33826 1.36975 6.33831 1.36968 6.33833L0.717876 6.77473L0.262674 7.07951C0.254658 7.08487 0.246806 7.0904 0.239142 7.09612C0.123988 7.18163 0.0458198 7.30508 0.0178809 7.44663C-0.0118392 7.59727 0.0188888 7.75039 0.104393 7.8778L0.104698 7.87825C0.104698 7.87827 0.104721 7.87829 0.104745 7.87832L0.656045 8.69982L0.847023 8.98441L1.95935 10.6419C1.95935 10.6419 1.95937 10.6419 1.95937 10.642L2.14391 10.917L2.69999 11.7456C2.81083 11.9107 2.99318 12 3.17877 12C3.28888 12 3.40017 11.9686 3.49835 11.9029L3.49871 11.9026C3.49875 11.9026 3.49882 11.9026 3.49887 11.9025L4.5797 11.1789L5.05714 11.5516C5.16205 11.6335 5.28679 11.6732 5.41071 11.6732C5.58186 11.6732 5.75144 11.5975 5.86493 11.4528L7.73875 9.06391L10.4706 7.23495C10.4742 7.23289 10.4779 7.23118 10.4814 7.22886L11.5884 6.48766C11.7164 6.40194 11.8034 6.27155 11.8332 6.12056C11.8629 5.96992 11.8321 5.8168 11.7466 5.68938L11.746 5.68849C11.7459 5.68838 11.7459 5.68823 11.7458 5.68812L11.1191 4.75432L11.8696 3.79756C11.9646 3.67633 12.0067 3.52548 11.988 3.37271ZM1.55588 7.74936C1.48685 8.09909 1.30433 8.4078 1.03568 8.63457L0.477278 7.80249L0.396649 7.68232C0.36339 7.63275 0.351413 7.57315 0.362991 7.51453C0.37314 7.4631 0.400306 7.41784 0.440315 7.38496C0.446034 7.38027 0.452035 7.37582 0.458269 7.37164L0.773777 7.16042L1.41131 6.7336C1.57346 7.04519 1.62486 7.39982 1.55588 7.74936ZM3.30292 11.6105C3.19998 11.6792 3.06054 11.6519 2.99189 11.5496L2.9842 11.5381L2.35485 10.6003C2.99803 10.2668 3.79202 10.4212 4.25884 10.9706L3.30292 11.6105ZM5.58826 11.2358C5.51197 11.333 5.37075 11.3504 5.27346 11.2744L4.88726 10.9729L6.79769 9.6939L5.58826 11.2358ZM10.2951 5.81776C10.3641 5.46803 10.5467 5.1593 10.8153 4.93253L11.4541 5.88437C11.4871 5.9339 11.499 5.99334 11.4875 6.05182C11.4759 6.1106 11.442 6.16134 11.3922 6.19472L10.4393 6.8327C10.2775 6.52131 10.2262 6.16699 10.2951 5.81776ZM11.5929 3.58054L10.913 4.44728L9.15051 1.82084C8.97388 1.55762 8.61571 1.48707 8.35212 1.66354L6.79462 2.70628C6.60575 2.83275 6.80133 3.1248 6.99024 2.99844L7.29794 2.79241C7.66863 3.24841 8.21892 3.49309 8.77887 3.49309C9.09037 3.49309 9.40473 3.41708 9.6929 3.26002L10.6185 4.63933C10.2725 4.91947 10.0374 5.30773 9.95017 5.74964C9.86302 6.19104 9.93273 6.63898 10.1458 7.02911L7.51831 8.78823C7.51806 8.78842 7.51777 8.78858 7.51752 8.78877L4.55218 10.7741C3.97521 10.0651 2.964 9.86784 2.15806 10.3071L1.23238 8.92774C1.57838 8.6476 1.81351 8.25934 1.90075 7.81742C1.98795 7.37572 1.9181 6.92748 1.70464 6.53714L6.17359 3.54515C6.36244 3.41867 6.16684 3.12656 5.97797 3.25298L4.67214 4.12725L7.56653 0.437324C7.6428 0.340101 7.78399 0.322709 7.88133 0.398697L11.5548 3.26644C11.6019 3.30319 11.6318 3.35604 11.6391 3.41532C11.6463 3.47469 11.6299 3.53336 11.5929 3.58054ZM8.54774 1.9568C8.65077 1.88787 8.7904 1.91515 8.85912 2.01756L9.18114 2.49739L9.49618 2.96685C8.85298 3.30031 8.059 3.14589 7.59219 2.59659L8.54774 1.9568Z" fill="#84C551"/>
<path d="M4.63949 4.8667C4.12695 5.20987 3.77894 5.7319 3.65957 6.33666C3.54024 6.94115 3.66369 7.55592 4.00716 8.0677C4.35182 8.58132 4.87624 8.92933 5.48379 9.04765C5.69994 9.0897 5.77035 8.74529 5.55099 8.70254C5.03588 8.60222 4.5913 8.3072 4.29909 7.87178C4.00798 7.43802 3.90335 6.917 4.00449 6.4047C4.10565 5.89217 4.40062 5.4497 4.8351 5.15882C5.73187 4.55842 6.95053 4.79878 7.55168 5.69458C7.84279 6.12836 7.9474 6.64938 7.84628 7.16168C7.7451 7.67421 7.45013 8.11667 7.01567 8.40752C6.84468 8.52199 6.65867 8.60836 6.46275 8.66422C6.24416 8.72652 6.34057 9.0646 6.55915 9.00232C6.79035 8.93639 7.00976 8.83457 7.21126 8.69966C7.72379 8.35649 8.07181 7.83449 8.19118 7.22975C8.31051 6.62524 8.18706 6.01047 7.84359 5.49866C7.13452 4.44211 5.69722 4.15857 4.63949 4.8667Z" fill="#84C551"/>
<path d="M8.6027 5.16665C8.63634 5.16665 8.67033 5.15702 8.70035 5.13691L9.52791 4.58287C9.60856 4.52884 9.63017 4.41966 9.57619 4.33899C9.52216 4.25831 9.41296 4.23672 9.33231 4.2907L8.50475 4.84475C8.4241 4.89877 8.40249 5.00795 8.45647 5.08863C8.49036 5.1393 8.54601 5.16665 8.6027 5.16665Z" fill="#84C551"/>
<path d="M3.15064 8.42946L2.32311 8.9835C2.24246 9.0375 2.22085 9.14668 2.27483 9.22735C2.30874 9.278 2.36436 9.30538 2.42106 9.30538C2.4547 9.30538 2.48868 9.29575 2.51871 9.27564L3.34623 8.7216C3.42688 8.66759 3.44849 8.55842 3.39451 8.47774C3.34046 8.39707 3.23131 8.37543 3.15064 8.42946Z" fill="#84C551"/>
<path d="M6.54932 8.0546C6.68184 8.2521 6.96401 8.04162 6.84124 7.8587L6.74653 7.71758C6.99999 7.45635 7.00824 7.09495 6.89293 6.83933C6.70253 6.41739 6.31102 6.38256 5.91352 6.47627L5.51472 5.88198C5.61489 5.84945 5.69297 5.85793 5.70068 5.85887C5.92447 5.89114 5.97617 5.5457 5.75257 5.51115C5.74041 5.5093 5.54108 5.48099 5.31432 5.58337L5.23697 5.46812C5.11028 5.27942 4.81836 5.47529 4.94504 5.66402L5.0294 5.78975C4.84674 5.98567 4.79389 6.2735 4.89988 6.52124C5.05516 6.88429 5.40312 6.92744 5.75297 6.86797L6.26616 7.63271C6.16446 7.68795 6.08263 7.70516 5.92906 7.70701C5.70696 7.7097 5.71624 8.06196 5.93333 8.05856C6.17287 8.05566 6.3112 8.01295 6.46264 7.92548L6.54932 8.0546ZM5.40758 6.54267C5.33473 6.5373 5.26233 6.47462 5.22314 6.38298C5.18951 6.30437 5.17779 6.19212 5.23477 6.09572L5.53391 6.54147C5.48884 6.54475 5.44625 6.5455 5.40758 6.54267ZM6.13443 6.78381C6.42376 6.70965 6.5428 6.91823 6.57245 6.98392C6.62807 7.10717 6.63222 7.27442 6.54154 7.41208L6.12203 6.78695C6.1262 6.78587 6.13019 6.78491 6.13443 6.78381Z" fill="#84C551"/>
</g>
<defs>
<clipPath id="clip0_48_2702">
<rect width="12" height="12" fill="white"/>
</clipPath>
</defs>
</svg>
